<?xml version="1.0" encoding="utf-8"?>
<!-- Generator: Adobe Illustrator 23.0.2, SVG Export Plug-In . SVG Version: 6.00 Build 0)  -->
<svg version="1.1" id="Layer_1" xmlns="http://www.w3.org/2000/svg" xmlns:xlink="http://www.w3.org/1999/xlink" x="0px" y="0px"
	 viewBox="0 0 2000 389.799" style="enable-background:new 0 0 2000 389.799;" xml:space="preserve">
<style type="text/css">
	.st0{fill:#F8D00D;}
</style>
<g>
	<path class="st0" d="M0.483,149.717c3.157-3.648,7.397-2.845,11.378-2.563c7.669,0.543,15.343,0.496,23.004,0.252
		c4.859-0.155,8.866-2.197,12.042-6.259c13.175-16.85,26.558-33.539,39.845-50.302c1.548-1.953,3.36-3.103,5.855-2.066
		c2.492,1.036,3.369,3.094,3.183,5.703c-0.133,1.864-0.925,3.446-1.893,5.004c-8.763,14.111-17.501,28.238-26.237,42.365
		c-0.522,0.843-1.003,1.715-1.446,2.602c-1.754,3.507-1.238,5.479,2.189,7.368c4.069,2.243,8.608,3.208,13.03,4.473
		c1.569,0.449,2.048-0.808,2.669-1.75c4.173-6.332,8.391-12.637,12.46-19.035c6.733-10.588,13.951-20.862,20.387-31.641
		c1.069-1.791,1.963-3.656,2.601-5.644c1.041-3.244,0.198-6.035-2.552-8.123c-2.104-1.597-4.472-2.737-6.979-3.532
		C85.753,78.879,61.479,71.21,37.206,63.535c-1.119-0.354-2.25-0.672-3.358-1.057c-4.452-1.548-6.034-3.892-5.805-8.556
		c0.288-5.877,3.736-8.596,9.582-7.477c9.22,1.764,18.429,3.582,27.646,5.363c23.395,4.521,46.79,9.044,70.19,13.545
		c8.116,1.561,14.727-1.903,20.636-6.784c6.532-5.396,12.737-11.191,19.057-16.842c3.9-3.487,7.735-7.047,11.63-10.541
		c1.436-1.288,3.103-2.186,5.062-2.395c3.18-0.339,5.117,1.414,5.302,4.61c0.172,2.971-0.472,5.687-1.844,8.334
		c-4.737,9.137-9.39,18.317-14.057,27.49c-0.654,1.285-1.318,2.583-1.788,3.941c-1.202,3.466-0.264,6.095,2.823,8.17
		c3.69,2.481,8.042,3.123,12.19,4.319c1.099,0.317,1.89-0.434,2.677-1.022c12.733-9.503,25.473-18.997,38.171-28.547
		c1.504-1.131,2.848-2.509,4.121-3.905c2.11-2.314,2.028-4.024-0.081-6.42c-1.624-1.845-3.602-3.284-5.526-4.773
		c-12.493-9.667-25.006-19.307-37.514-28.954c-4.749-3.663-4.414-8.972,0.763-12.033c0.542,0,1.084-0.001,1.626-0.001
		c18.643,11.212,37.4,22.24,55.862,33.743c5.936,3.698,11.63,3.993,17.747,1.666c7.508-2.855,14.921-5.96,22.376-8.955
		c0.586-0.235,1.162-0.513,1.767-0.68c2.059-0.569,4.338-1.071,5.684,1.012c1.381,2.138,1.055,4.613-0.612,6.545
		c-1.763,2.042-3.784,3.87-5.763,5.717c-3.628,3.385-7.36,6.661-10.953,10.082c-4.182,3.983-4.076,5.923,0.657,9.449
		c7.384,5.5,14.847,10.894,22.314,16.281c1.84,1.327,2.762,2.943,2.718,5.25c-0.079,4.129-3.008,6.6-7.146,5.806
		c-2.236-0.429-4.249-1.5-6.297-2.443c-9.346-4.305-18.756-8.479-28.008-12.977c-6.945-3.376-13.619-2.786-20.309,0.422
		c-8.487,4.07-16.233,9.417-24.301,14.208c-3.153,1.872-6.271,3.803-10.15,6.16c4.463,1.306,8.136,2.377,11.806,3.456
		c1.299,0.382,2.627,0.692,3.88,1.191c2.551,1.016,4.584,2.633,5.033,5.527c0.517,3.332-0.219,6.303-3.05,8.452
		c-2.622,1.99-5.669,2.969-8.885,2.729c-11.777-0.878-23.54-1.943-35.311-2.916c-7.458-0.617-14.91-1.478-22.381-1.722
		c-9.685-0.316-17.271,4.505-23.913,11.005c-7.638,7.475-13.759,16.239-20.49,24.483c-4.623,5.662-9.1,11.444-13.651,17.165
		c-1.884,2.369-1.836,2.656,1.121,3.521c9.184,2.685,18.376,5.342,27.579,7.961c2.871,0.817,5.179,2.157,5.824,5.339
		c1.077,5.313-2.113,8.551-7.883,7.816c-3.218-0.41-6.397-1.13-9.589-1.735c-9.133-1.73-18.289-3.355-27.38-5.284
		c-2.569-0.545-4.013,0.204-5.497,2.107c-5.161,6.619-10.44,13.144-15.661,19.716c-1.475,1.856-3.152,3.474-5.199,4.688
		c-2.665,1.579-5.483,2.018-8.241,0.481c-2.782-1.55-3.833-4.291-3.838-7.318c-0.004-2.532,0.519-5.013,1.969-7.213
		c3.179-4.825,6.339-9.661,9.469-14.518c1.5-2.328,1.22-3.004-1.515-3.122c-3.423-0.147-6.876-0.27-10.281,0.015
		c-4.286,0.358-7.905,2.409-10.919,5.46c-8.375,8.477-16.729,16.973-25.095,25.458c-0.316,0.32-0.655,0.622-1.01,0.898
		c-3.103,2.418-6.565,2.784-8.697,0.93c-1.907-1.659-1.979-5.761,0.013-8.8c4.9-7.475,9.886-14.894,14.811-22.354
		c3.268-4.95,2.752-6.988-2.691-9.37c-5.787-2.532-11.66-4.875-17.541-7.184c-2.476-0.972-4.761-2.143-6.596-4.097
		C0.486,152.608,0.485,151.162,0.483,149.717z"/>
	<path class="st0" d="M274.606,17.75c0.002,6.167-3.991,10.499-9.634,10.452c-5.169-0.043-9.338-4.362-9.304-9.64
		c0.04-6.357,4.101-11.048,9.527-11.008C270.543,7.594,274.605,11.994,274.606,17.75z"/>
	<path class="st0" d="M136.039,52.147c-8.959,0.017-15.909-6.995-15.893-16.034c0.019-10.094,6.86-17.619,16.009-17.609
		c8.972,0.01,15.92,7.333,15.927,16.786C152.09,44.912,145.22,52.13,136.039,52.147z"/>
	<path class="st0" d="M22.651,128.953c0.13-6.403,3.865-10.334,9.735-10.246c5.129,0.077,9.291,4.526,9.142,9.774
		c-0.18,6.336-4.317,10.962-9.706,10.853C26.552,139.228,22.535,134.681,22.651,128.953z"/>
</g>
<g>
	<path class="st0" d="M316.387,258.525c0,12.98-3.162,24.092-9.474,33.335c-6.318,9.244-15.65,16.253-27.996,21.015
		c-12.346,4.765-27.364,7.151-45.05,7.151c-16.884,0-31.357-2.585-43.412-7.754c-12.062-5.166-20.961-11.626-26.705-19.38
		c-5.744-7.751-8.61-15.53-8.61-23.341c0-5.169,1.831-9.591,5.51-13.267c3.674-3.674,8.325-5.513,13.955-5.513
		c4.936,0,8.723,1.208,11.368,3.62c2.644,2.411,5.169,5.8,7.58,10.162c4.822,8.385,10.594,14.643,17.316,18.78
		c6.716,4.134,15.872,6.201,27.478,6.201c9.411,0,17.14-2.096,23.168-6.289c6.028-4.191,9.048-8.985,9.048-14.385
		c0-8.268-3.133-14.299-9.389-18.089c-6.261-3.787-16.571-7.407-30.924-10.853c-16.196-4.018-29.372-8.237-39.54-12.661
		c-10.162-4.419-18.288-10.25-24.373-17.484c-6.09-7.236-9.133-16.136-9.133-26.702c0-9.417,2.815-18.32,8.445-26.705
		c5.624-8.382,13.921-15.073,24.891-20.068c10.964-4.996,24.203-7.495,39.71-7.495c12.17,0,23.111,1.265,32.818,3.79
		c9.702,2.528,17.799,5.917,24.288,10.165c6.489,4.251,11.43,8.959,14.814,14.126c3.389,5.169,5.084,10.225,5.084,15.161
		c0,5.4-1.808,9.818-5.425,13.264c-3.617,3.446-8.758,5.169-15.417,5.169c-4.828,0-8.934-1.379-12.317-4.134
		c-3.389-2.758-7.268-6.892-11.629-12.406c-3.56-4.592-7.751-8.268-12.579-11.024c-4.822-2.758-11.368-4.134-19.636-4.134
		c-8.502,0-15.565,1.808-21.189,5.425c-5.63,3.62-8.445,8.126-8.445,13.523c0,4.939,2.07,8.988,6.204,12.147
		c4.134,3.159,9.702,5.769,16.708,7.836c7.006,2.07,16.651,4.595,28.945,7.58c14.581,3.563,26.5,7.814,35.747,12.75
		c9.241,4.939,16.247,10.768,21.018,17.484C313.999,242.244,316.387,249.912,316.387,258.525z"/>
	<path class="st0" d="M358.764,132.939h5.169v-28.254c0-7.58,0.199-13.523,0.603-17.831c0.398-4.305,1.518-8.01,3.355-11.112
		c1.837-3.213,4.481-5.826,7.927-7.836c3.446-2.01,7.29-3.017,11.544-3.017c5.965,0,11.368,2.241,16.19,6.719
		c3.213,2.988,5.255,6.634,6.119,10.941c0.859,4.305,1.291,10.421,1.291,18.345v32.045h17.225c6.659,0,11.743,1.578,15.246,4.737
		c3.503,3.159,5.255,7.208,5.255,12.144c0,6.318-2.496,10.739-7.495,13.264c-4.993,2.528-12.141,3.79-21.445,3.79h-8.786v86.481
		c0,7.353,0.256,13.008,0.773,16.969c0.517,3.964,1.894,7.179,4.134,9.647c2.241,2.471,5.886,3.705,10.941,3.705
		c2.758,0,6.489-0.489,11.197-1.464s8.382-1.464,11.027-1.464c3.787,0,7.205,1.524,10.247,4.564
		c3.042,3.045,4.566,6.804,4.566,11.285c0,7.58-4.134,13.381-12.403,17.398c-8.268,4.021-20.154,6.031-35.661,6.031
		c-14.7,0-25.84-2.471-33.421-7.41c-7.58-4.936-12.551-11.769-14.899-20.501c-2.354-8.726-3.531-20.384-3.531-34.97v-90.271h-6.204
		c-6.779,0-11.948-1.606-15.502-4.822c-3.566-3.216-5.34-7.293-5.34-12.232c0-4.936,1.865-8.985,5.596-12.144
		C346.214,134.517,351.639,132.939,358.764,132.939z"/>
	<path class="st0" d="M603.219,293.495v-6.028c-5.63,7.123-11.544,13.091-17.748,17.916c-6.198,4.822-12.977,8.413-20.324,10.765
		c-7.353,2.354-15.735,3.534-25.152,3.534c-11.368,0-21.564-2.357-30.577-7.066c-9.019-4.706-15.997-11.197-20.933-19.466
		c-5.857-9.992-8.786-24.348-8.786-43.068v-93.199c0-9.414,2.127-16.452,6.375-21.103c4.248-4.652,9.878-6.978,16.884-6.978
		c7.12,0,12.858,2.357,17.225,7.066c4.362,4.709,6.545,11.712,6.545,21.015v75.284c0,10.913,0.921,20.068,2.758,27.478
		c1.837,7.407,5.141,13.207,9.906,17.398c4.765,4.194,11.226,6.289,19.38,6.289c7.922,0,15.388-2.354,22.394-7.066
		c7.006-4.706,12.118-10.853,15.331-18.431c2.644-6.662,3.964-21.248,3.964-43.759v-57.194c0-9.303,2.178-16.307,6.545-21.015
		c4.362-4.709,10.048-7.066,17.054-7.066s12.636,2.326,16.884,6.978c4.248,4.652,6.375,11.689,6.375,21.103v136.268
		c0,8.959-2.042,15.675-6.113,20.157c-4.083,4.478-9.338,6.719-15.764,6.719c-6.437,0-11.749-2.326-15.94-6.978
		S603.219,301.88,603.219,293.495z"/>
	<path class="st0" d="M823.039,293.151v-4.652c-6.318,7.236-12.551,13.122-18.692,17.657c-6.142,4.538-12.806,7.984-19.983,10.338
		c-7.177,2.351-15.019,3.531-23.515,3.531c-11.254,0-21.678-2.386-31.266-7.151c-9.594-4.763-17.89-11.57-24.896-20.412
		s-12.317-19.235-15.934-31.183c-3.617-11.942-5.425-24.862-5.425-38.761c0-29.4,7.177-52.312,21.536-68.735
		c14.353-16.423,33.245-24.635,56.674-24.635c13.551,0,24.982,2.326,34.285,6.975c9.303,4.652,18.374,11.803,27.217,21.45V88.148
		c0-9.647,1.922-16.941,5.772-21.88c3.844-4.936,9.332-7.407,16.452-7.407c7.12,0,12.602,2.269,16.452,6.804
		c3.85,4.538,5.772,11.228,5.772,20.071v207.414c0,8.959-2.07,15.675-6.204,20.157c-4.134,4.478-9.474,6.719-16.019,6.719
		c-6.432,0-11.743-2.326-15.934-6.978C825.131,308.397,823.039,301.763,823.039,293.151z M730.527,224.069
		c0,12.75,1.985,23.603,5.948,32.559c3.958,8.959,9.389,15.707,16.275,20.242c6.892,4.541,14.416,6.807,22.571,6.807
		c8.268,0,15.82-2.155,22.65-6.46c6.835-4.308,12.289-10.91,16.366-19.812c4.077-8.9,6.119-20.012,6.119-33.336
		c0-12.516-2.042-23.281-6.119-32.301c-4.077-9.013-9.588-15.906-16.537-20.671c-6.949-4.765-14.558-7.151-22.826-7.151
		c-8.61,0-16.309,2.442-23.082,7.322c-6.779,4.885-12.033,11.888-15.764,21.018C732.393,201.416,730.527,212.01,730.527,224.069z"/>
	<path class="st0" d="M1045.958,235.957h-91.994c0.114,10.68,2.269,20.1,6.46,28.252c4.191,8.158,9.764,14.299,16.713,18.433
		c6.949,4.134,14.615,6.201,22.997,6.201c5.624,0,10.771-0.66,15.417-1.979c4.652-1.319,9.161-3.386,13.529-6.204
		c4.362-2.812,8.382-5.826,12.056-9.042c3.674-3.216,8.439-7.58,14.296-13.094c2.417-2.067,5.857-3.102,10.338-3.102
		c4.822,0,8.729,1.322,11.715,3.964c2.986,2.641,4.481,6.375,4.481,11.197c0,4.251-1.666,9.215-4.999,14.902
		c-3.332,5.684-8.354,11.14-15.075,16.366c-6.716,5.226-15.155,9.559-25.323,13.006c-10.162,3.446-21.848,5.169-35.053,5.169
		c-30.208,0-53.694-8.615-70.464-25.84c-16.77-17.228-25.152-40.597-25.152-70.117c0-13.893,2.07-26.787,6.204-38.675
		c4.134-11.885,10.162-22.076,18.089-30.577c7.922-8.499,17.686-15.013,29.287-19.554c11.595-4.535,24.464-6.804,38.59-6.804
		c18.374,0,34.137,3.875,47.285,11.629c13.153,7.751,23.003,17.774,29.548,30.06c6.545,12.292,9.815,24.808,9.815,37.558
		c0,11.828-3.389,19.494-10.162,22.997C1067.778,234.208,1058.247,235.957,1045.958,235.957z M953.964,209.255h85.278
		c-1.149-16.079-5.488-28.107-13.006-36.091c-7.523-7.981-17.43-11.973-29.719-11.973c-11.715,0-21.337,4.049-28.854,12.144
		C960.14,181.433,955.573,193.406,953.964,209.255z"/>
	<path class="st0" d="M1167.062,154.816v5.687c8.269-10.91,17.316-18.923,27.137-24.032c9.815-5.11,21.103-7.669,33.847-7.669
		c12.403,0,23.486,2.701,33.25,8.098c9.758,5.4,17.054,13.037,21.877,22.912c3.105,5.744,5.112,11.948,6.034,18.607
		c0.916,6.662,1.376,15.158,1.376,25.496v87.513c0,9.42-2.155,16.54-6.46,21.362c-4.305,4.822-9.906,7.236-16.799,7.236
		c-7.006,0-12.693-2.471-17.054-7.41c-4.367-4.936-6.545-11.999-6.545-21.189v-78.383c0-15.505-2.155-27.362-6.46-35.576
		c-4.305-8.209-12.892-12.317-25.755-12.317c-8.382,0-16.019,2.499-22.912,7.495s-11.948,11.86-15.161,20.586
		c-2.297,7.006-3.446,20.1-3.446,39.278v58.917c0,9.534-2.212,16.685-6.631,21.447c-4.424,4.765-10.139,7.151-17.14,7.151
		c-6.779,0-12.346-2.471-16.713-7.41c-4.367-4.936-6.545-11.999-6.545-21.189V155.504c0-8.957,1.951-15.647,5.857-20.068
		c3.901-4.419,9.247-6.634,16.019-6.634c4.134,0,7.865,0.978,11.197,2.929c3.332,1.956,6.005,4.885,8.013,8.786
		C1166.055,144.424,1167.062,149.192,1167.062,154.816z"/>
	<path class="st0" d="M1340.029,132.939h5.169v-28.254c0-7.58,0.199-13.523,0.603-17.831c0.398-4.305,1.518-8.01,3.355-11.112
		c1.837-3.213,4.481-5.826,7.927-7.836c3.446-2.01,7.29-3.017,11.544-3.017c5.965,0,11.368,2.241,16.19,6.719
		c3.213,2.988,5.255,6.634,6.119,10.941c0.859,4.305,1.291,10.421,1.291,18.345v32.045h17.225c6.659,0,11.743,1.578,15.246,4.737
		c3.503,3.159,5.255,7.208,5.255,12.144c0,6.318-2.496,10.739-7.495,13.264c-4.993,2.528-12.141,3.79-21.445,3.79h-8.786v86.481
		c0,7.353,0.256,13.008,0.773,16.969c0.517,3.964,1.894,7.179,4.134,9.647c2.24,2.471,5.886,3.705,10.941,3.705
		c2.758,0,6.489-0.489,11.197-1.464s8.382-1.464,11.026-1.464c3.787,0,7.205,1.524,10.248,4.564
		c3.042,3.045,4.566,6.804,4.566,11.285c0,7.58-4.134,13.381-12.403,17.398c-8.269,4.021-20.154,6.031-35.661,6.031
		c-14.7,0-25.84-2.471-33.421-7.41c-7.58-4.936-12.551-11.769-14.899-20.501c-2.354-8.726-3.531-20.384-3.531-34.97v-90.271h-6.204
		c-6.779,0-11.948-1.606-15.502-4.822c-3.566-3.216-5.34-7.293-5.34-12.232c0-4.936,1.865-8.985,5.596-12.144
		C1327.478,134.517,1332.903,132.939,1340.029,132.939z"/>
	<path class="st0" d="M1505.751,155.16v5.687c8.843-10.91,18.033-18.923,27.563-24.032c9.537-5.11,20.33-7.666,32.391-7.666
		c14.467,0,27.791,3.733,39.966,11.197c12.17,7.467,21.792,18.377,28.854,32.73c7.063,14.359,10.594,31.354,10.594,50.993
		c0,14.473-2.042,27.765-6.113,39.881c-4.077,12.118-9.679,22.283-16.799,30.492c-7.12,8.214-15.536,14.532-25.238,18.951
		c-9.707,4.421-20.131,6.634-31.266,6.634c-13.438,0-24.72-2.701-33.853-8.098c-9.133-5.397-17.828-13.321-26.102-23.773v70.635
		c0,20.671-7.523,31.01-22.565,31.01c-8.843,0-14.7-2.673-17.572-8.013c-2.872-5.34-4.305-13.125-4.305-23.344V155.504
		c0-8.957,1.951-15.647,5.857-20.068c3.901-4.419,9.241-6.634,16.02-6.634c6.659,0,12.084,2.269,16.281,6.807
		C1503.658,140.147,1505.751,146.664,1505.751,155.16z M1597.921,223.554c0-12.406-1.899-23.057-5.687-31.956
		c-3.787-8.9-9.042-15.735-15.764-20.501c-6.716-4.765-14.154-7.151-22.309-7.151c-12.977,0-23.918,5.112-32.818,15.334
		c-8.9,10.222-13.352,25.266-13.352,45.135c0,18.721,4.424,33.276,13.267,43.671c8.843,10.395,19.813,15.59,32.903,15.59
		c7.808,0,15.047-2.266,21.706-6.807c6.659-4.535,11.999-11.339,16.019-20.412C1595.908,247.387,1597.921,236.417,1597.921,223.554z
		"/>
	<path class="st0" d="M1729.534,252.15v39.278c0,9.534-2.241,16.685-6.716,21.447c-4.481,4.765-10.168,7.151-17.054,7.151
		c-6.779,0-12.351-2.414-16.713-7.236c-4.367-4.822-6.545-11.942-6.545-21.362V160.503c0-21.132,7.637-31.701,22.912-31.701
		c7.808,0,13.438,2.471,16.884,7.41c3.446,4.939,5.34,12.229,5.681,21.877c5.63-9.648,11.402-16.938,17.316-21.877
		c5.914-4.939,13.807-7.41,23.685-7.41s19.471,2.471,28.769,7.41c9.303,4.939,13.955,11.484,13.955,19.639
		c0,5.744-1.979,10.481-5.943,14.211c-3.964,3.733-8.24,5.599-12.835,5.599c-1.723,0-5.886-1.061-12.488-3.187
		c-6.608-2.124-12.431-3.185-17.487-3.185c-6.892,0-12.516,1.808-16.884,5.425c-4.362,3.617-7.751,8.988-10.162,16.108
		c-2.411,7.123-4.077,15.59-4.999,25.411C1729.995,226.051,1729.534,238.024,1729.534,252.15z"/>
	<path class="st0" d="M2000,224.416c0,14.012-2.184,26.932-6.545,38.761c-4.367,11.828-10.685,21.993-18.954,30.492
		c-8.269,8.499-18.146,15.016-29.628,19.551c-11.487,4.538-24.407,6.807-38.761,6.807c-14.245,0-27.052-2.3-38.419-6.892
		c-11.368-4.592-21.217-11.169-29.542-19.724c-8.331-8.556-14.643-18.661-18.954-30.322c-4.305-11.655-6.46-24.547-6.46-38.672
		c0-14.24,2.184-27.276,6.545-39.107c4.367-11.828,10.623-21.934,18.783-30.319c8.149-8.382,18.027-14.842,29.628-19.38
		c11.601-4.538,24.402-6.807,38.419-6.807c14.24,0,27.16,2.3,38.761,6.892c11.595,4.595,21.53,11.14,29.804,19.639
		c8.268,8.502,14.552,18.604,18.863,30.319C1997.845,197.367,2000,210.287,2000,224.416z M1952.795,224.416
		c0-19.181-4.22-34.112-12.659-44.791c-8.445-10.682-19.784-16.022-34.024-16.022c-9.19,0-17.288,2.386-24.294,7.151
		c-7.006,4.765-12.403,11.8-16.19,21.101c-3.793,9.303-5.687,20.157-5.687,32.562c0,12.289,1.865,23.025,5.596,32.212
		c3.73,9.19,9.076,16.224,16.025,21.103c6.943,4.885,15.127,7.322,24.55,7.322c14.24,0,25.579-5.365,34.024-16.108
		C1948.575,258.209,1952.795,243.364,1952.795,224.416z"/>
</g>
</svg>
